<svg width="14" height="12" viewBox="0 0 14 12" fill="none" xmlns="http://www.w3.org/2000/svg">
<path d="M13.5 0.497925H0.5C0.223437 0.497925 0 0.721362 0 0.997925V10.9979C0 11.2745 0.223437 11.4979 0.5 11.4979H13.5C13.7766 11.4979 14 11.2745 14 10.9979V0.997925C14 0.721362 13.7766 0.497925 13.5 0.497925ZM12.875 3.74793H9.5625V1.62292H12.875V3.74793ZM12.875 7.24793H9.5625V4.74793H12.875V7.24793ZM5.4375 4.74793H8.5625V7.24793H5.4375V4.74793ZM8.5625 3.74793H5.4375V1.62292H8.5625V3.74793ZM1.125 4.74793H4.4375V7.24793H1.125V4.74793ZM1.125 1.62292H4.4375V3.74793H1.125V1.62292ZM1.125 8.24793H4.4375V10.3729H1.125V8.24793ZM5.4375 8.24793H8.5625V10.3729H5.4375V8.24793ZM12.875 10.3729H9.5625V8.24793H12.875V10.3729Z" fill="#1890FF"/>
</svg>
