<svg width="86" height="33" viewBox="0 0 86 33" fill="none" xmlns="http://www.w3.org/2000/svg">
<path fill-rule="evenodd" clip-rule="evenodd" d="M85.025 0.25C77.1697 0.812352 69.3144 1.3747 58.5156 1.99523C47.7168 2.61575 34.1519 3.31385 23.9028 3.04237C15.8808 2.79455 7.88882 1.86091 0 0.25C2.47084 2.84277 5.38807 4.87292 8.58229 6.22256C14.5805 8.3865 20.8926 9.32002 27.2009 8.97614C37.3677 8.5681 47.5009 7.4606 57.5404 5.66021C67.6476 4.05072 76.2477 2.15036 85.025 0.25Z" fill="#0043C4"/>
<path fill-rule="evenodd" clip-rule="evenodd" d="M83.5591 6.17017C72.1595 8.27363 60.8297 10.3771 52.9968 11.8044C45.1639 13.2318 41.0901 13.6825 37.0513 14.0018C33.3205 14.2954 29.5747 14.2954 25.8439 14.0018C23.0658 13.702 20.309 13.2064 17.5914 12.5181C20.9464 14.2518 24.4628 15.599 28.0819 16.5372C33.3835 17.7623 38.7976 18.3357 44.2198 18.2463C49.774 18.0355 55.3132 17.4963 60.8122 16.6311L70.0264 15.4103C68.6892 17.29 67.682 19.4157 67.0541 21.6831C66.6108 23.9327 66.7437 26.2694 67.4387 28.4442C67.9994 29.9922 68.8849 31.3804 70.0264 32.5009C70.7414 29.0014 71.7418 25.5763 73.0162 22.2654C74.4535 18.9465 76.2116 15.7991 78.2614 12.8749C79.895 10.5212 81.6459 8.2642 83.5067 6.11383" fill="#0043C4"/>
</svg>
