<svg width="32" height="13" viewBox="0 0 32 13" fill="none" xmlns="http://www.w3.org/2000/svg">
<path fill-rule="evenodd" clip-rule="evenodd" d="M31.6372 0.5C28.7143 0.709247 25.7914 0.918494 21.7733 1.14939C17.7551 1.38028 12.7077 1.64004 8.89405 1.53902C5.90913 1.44681 2.93538 1.09941 0 0.5C0.919382 1.46475 2.00486 2.22016 3.19341 2.72235C5.42529 3.52753 7.77399 3.87489 10.1213 3.74694C13.9042 3.59511 17.6747 3.18301 21.4104 2.5131C25.1712 1.91422 28.3712 1.20711 31.6372 0.5Z" fill="white"/>
<path fill-rule="evenodd" clip-rule="evenodd" d="M31.092 2.70285C26.8503 3.48553 22.6346 4.26821 19.72 4.79931C16.8054 5.33042 15.2896 5.49814 13.7868 5.61694C12.3986 5.72619 11.0048 5.72619 9.6166 5.61694C8.58288 5.50539 7.5571 5.32097 6.5459 5.06487C7.79425 5.70998 9.10269 6.21126 10.4493 6.56035C12.422 7.0162 14.4366 7.22955 16.4541 7.19627C18.5208 7.11786 20.5819 6.91723 22.6281 6.59529L26.0566 6.14105C25.559 6.84047 25.1842 7.6314 24.9506 8.47512C24.7857 9.31218 24.8351 10.1816 25.0937 10.9909C25.3023 11.5669 25.6318 12.0834 26.0566 12.5003C26.3226 11.1982 26.6949 9.92375 27.1691 8.69175C27.7039 7.45683 28.3581 6.28569 29.1208 5.19764C29.7286 4.32184 30.3801 3.48202 31.0725 2.68188" fill="white"/>
</svg>
