<svg width="12" height="12" viewBox="0 0 12 12" fill="none" xmlns="http://www.w3.org/2000/svg">
<path d="M11.875 10.3763H1.125V0.626251C1.125 0.557501 1.06875 0.501251 1 0.501251H0.125C0.05625 0.501251 0 0.557501 0 0.626251V11.3763C0 11.445 0.05625 11.5013 0.125 11.5013H11.875C11.9438 11.5013 12 11.445 12 11.3763V10.5013C12 10.4325 11.9438 10.3763 11.875 10.3763ZM2.5 9.12625H3.375C3.44375 9.12625 3.5 9.07 3.5 9.00125V6.75125C3.5 6.6825 3.44375 6.62625 3.375 6.62625H2.5C2.43125 6.62625 2.375 6.6825 2.375 6.75125V9.00125C2.375 9.07 2.43125 9.12625 2.5 9.12625ZM4.875 9.12625H5.75C5.81875 9.12625 5.875 9.07 5.875 9.00125V4.00125C5.875 3.9325 5.81875 3.87625 5.75 3.87625H4.875C4.80625 3.87625 4.75 3.9325 4.75 4.00125V9.00125C4.75 9.07 4.80625 9.12625 4.875 9.12625ZM7.25 9.12625H8.125C8.19375 9.12625 8.25 9.07 8.25 9.00125V5.22C8.25 5.15125 8.19375 5.095 8.125 5.095H7.25C7.18125 5.095 7.125 5.15125 7.125 5.22V9.00125C7.125 9.07 7.18125 9.12625 7.25 9.12625ZM9.625 9.12625H10.5C10.5688 9.12625 10.625 9.07 10.625 9.00125V2.75125C10.625 2.6825 10.5688 2.62625 10.5 2.62625H9.625C9.55625 2.62625 9.5 2.6825 9.5 2.75125V9.00125C9.5 9.07 9.55625 9.12625 9.625 9.12625Z" fill="#008FFF"/>
</svg>
