<svg width="14" height="16" viewBox="0 0 14 16" fill="none" xmlns="http://www.w3.org/2000/svg">
<path d="M12.7163 7.14808H11.502V3.14808C11.502 1.88558 10.4788 0.862366 9.21631 0.862366H4.78774C3.52524 0.862366 2.50202 1.88558 2.50202 3.14808V7.14808H1.28774C0.971666 7.14808 0.716309 7.40344 0.716309 7.71951V14.5767C0.716309 14.8927 0.971666 15.1481 1.28774 15.1481H12.7163C13.0324 15.1481 13.2877 14.8927 13.2877 14.5767V7.71951C13.2877 7.40344 13.0324 7.14808 12.7163 7.14808ZM3.78774 3.14808C3.78774 2.59629 4.23595 2.14808 4.78774 2.14808H9.21631C9.7681 2.14808 10.2163 2.59629 10.2163 3.14808V7.14808H3.78774V3.14808ZM12.002 13.8624H2.00202V8.43379H12.002V13.8624ZM6.50202 11.3802V12.3267C6.50202 12.4052 6.56631 12.4695 6.64488 12.4695H7.35917C7.43774 12.4695 7.50202 12.4052 7.50202 12.3267V11.3802C7.64943 11.2744 7.75945 11.1245 7.81626 10.9522C7.87306 10.7798 7.87372 10.5939 7.81813 10.4212C7.76254 10.2484 7.65358 10.0978 7.50692 9.99093C7.36027 9.88406 7.18349 9.82648 7.00202 9.82648C6.82056 9.82648 6.64378 9.88406 6.49713 9.99093C6.35047 10.0978 6.24151 10.2484 6.18592 10.4212C6.13033 10.5939 6.13099 10.7798 6.18779 10.9522C6.2446 11.1245 6.35462 11.2744 6.50202 11.3802Z" fill="#1890FF"/>
</svg>
