<svg width="12" height="12" viewBox="0 0 12 12" fill="none" xmlns="http://www.w3.org/2000/svg">
<path d="M6.7184 0.624084H5.7809C5.69757 0.624084 5.6559 0.665751 5.6559 0.749084V5.65533H1.00002C0.916682 5.65533 0.875015 5.697 0.875015 5.78033V6.71783C0.875015 6.80117 0.916682 6.84283 1.00002 6.84283H5.6559V11.7491C5.6559 11.8324 5.69757 11.8741 5.7809 11.8741H6.7184C6.80173 11.8741 6.8434 11.8324 6.8434 11.7491V6.84283H11.5C11.5834 6.84283 11.625 6.80117 11.625 6.71783V5.78033C11.625 5.697 11.5834 5.65533 11.5 5.65533H6.8434V0.749084C6.8434 0.665751 6.80173 0.624084 6.7184 0.624084Z" fill="white"/>
</svg>
