<svg width="14" height="14" viewBox="0 0 14 14" fill="none" xmlns="http://www.w3.org/2000/svg">
<path d="M13.1875 8.99976H11.5625V6.62476C11.5625 6.55601 11.5063 6.49976 11.4375 6.49976H7.5625V4.99976H9.25C9.3875 4.99976 9.5 4.88726 9.5 4.74976V0.249756C9.5 0.112256 9.3875 -0.000244141 9.25 -0.000244141H4.75C4.6125 -0.000244141 4.5 0.112256 4.5 0.249756V4.74976C4.5 4.88726 4.6125 4.99976 4.75 4.99976H6.4375V6.49976H2.5625C2.49375 6.49976 2.4375 6.55601 2.4375 6.62476V8.99976H0.8125C0.675 8.99976 0.5625 9.11226 0.5625 9.24976V13.7498C0.5625 13.8873 0.675 13.9998 0.8125 13.9998H5.3125C5.45 13.9998 5.5625 13.8873 5.5625 13.7498V9.24976C5.5625 9.11226 5.45 8.99976 5.3125 8.99976H3.5625V7.62476H10.4375V8.99976H8.6875C8.55 8.99976 8.4375 9.11226 8.4375 9.24976V13.7498C8.4375 13.8873 8.55 13.9998 8.6875 13.9998H13.1875C13.325 13.9998 13.4375 13.8873 13.4375 13.7498V9.24976C13.4375 9.11226 13.325 8.99976 13.1875 8.99976ZM4.375 10.1873V12.8123H1.75V10.1873H4.375ZM5.6875 3.81226V1.18726H8.3125V3.81226H5.6875ZM12.25 12.8123H9.625V10.1873H12.25V12.8123Z" fill="black"/>
</svg>
