<svg width="12" height="12" viewBox="0 0 12 12" fill="none" xmlns="http://www.w3.org/2000/svg">
<path d="M11.875 10.3762H1.125V0.626221C1.125 0.557471 1.06875 0.501221 1 0.501221H0.125C0.05625 0.501221 0 0.557471 0 0.626221V11.3762C0 11.445 0.05625 11.5012 0.125 11.5012H11.875C11.9438 11.5012 12 11.445 12 11.3762V10.5012C12 10.4325 11.9438 10.3762 11.875 10.3762ZM2.5 9.12622H3.375C3.44375 9.12622 3.5 9.06997 3.5 9.00122V6.75122C3.5 6.68247 3.44375 6.62622 3.375 6.62622H2.5C2.43125 6.62622 2.375 6.68247 2.375 6.75122V9.00122C2.375 9.06997 2.43125 9.12622 2.5 9.12622ZM4.875 9.12622H5.75C5.81875 9.12622 5.875 9.06997 5.875 9.00122V4.00122C5.875 3.93247 5.81875 3.87622 5.75 3.87622H4.875C4.80625 3.87622 4.75 3.93247 4.75 4.00122V9.00122C4.75 9.06997 4.80625 9.12622 4.875 9.12622ZM7.25 9.12622H8.125C8.19375 9.12622 8.25 9.06997 8.25 9.00122V5.21997C8.25 5.15122 8.19375 5.09497 8.125 5.09497H7.25C7.18125 5.09497 7.125 5.15122 7.125 5.21997V9.00122C7.125 9.06997 7.18125 9.12622 7.25 9.12622ZM9.625 9.12622H10.5C10.5688 9.12622 10.625 9.06997 10.625 9.00122V2.75122C10.625 2.68247 10.5688 2.62622 10.5 2.62622H9.625C9.55625 2.62622 9.5 2.68247 9.5 2.75122V9.00122C9.5 9.06997 9.55625 9.12622 9.625 9.12622Z" fill="black"/>
</svg>
