<svg width="16" height="16" viewBox="0 0 16 16" fill="none" xmlns="http://www.w3.org/2000/svg">
<path d="M15.0912 2.59483L14.0841 3.38233C12.7109 1.62697 10.5751 0.500183 8.17693 0.500183C4.03586 0.500183 0.684074 3.8484 0.678717 7.99126C0.67336 12.1377 4.03229 15.5002 8.17693 15.5002C11.4144 15.5002 14.1734 13.4466 15.2234 10.5698C15.2501 10.4948 15.2109 10.4109 15.1359 10.3859L14.1234 10.0377C14.0881 10.0256 14.0494 10.0278 14.0157 10.0438C13.982 10.0598 13.9559 10.0884 13.943 10.1234C13.9109 10.2127 13.8751 10.302 13.8376 10.3895C13.5287 11.1216 13.0859 11.7788 12.5216 12.343C11.9618 12.9038 11.2991 13.3513 10.5698 13.6609C9.81443 13.9805 9.00907 14.143 8.1805 14.143C7.35015 14.143 6.54657 13.9805 5.79122 13.6609C5.06117 13.3526 4.39822 12.905 3.83943 12.343C3.27818 11.7834 2.83119 11.1199 2.52336 10.3895C2.20372 9.63233 2.04122 8.82876 2.04122 7.9984C2.04122 7.16804 2.20372 6.36447 2.52336 5.60733C2.83229 4.87518 3.27515 4.21804 3.83943 3.65376C4.40372 3.08947 5.06086 2.64661 5.79122 2.3359C6.54657 2.01625 7.35193 1.85375 8.1805 1.85375C9.01086 1.85375 9.81443 2.01625 10.5698 2.3359C11.2998 2.64419 11.9628 3.09182 12.5216 3.65376C12.6984 3.83054 12.8644 4.01804 13.018 4.21447L11.943 5.05376C11.9217 5.07021 11.9055 5.09233 11.8963 5.11758C11.887 5.14283 11.8851 5.17018 11.8907 5.19648C11.8963 5.22278 11.9092 5.24697 11.9279 5.26626C11.9467 5.28556 11.9704 5.29917 11.9966 5.30554L15.1323 6.0734C15.2216 6.09483 15.3091 6.02697 15.3091 5.9359L15.3234 2.70554C15.3216 2.58768 15.1841 2.52161 15.0912 2.59483Z" fill="black" fill-opacity="0.85"/>
</svg>
