<svg width="13" height="13" viewBox="0 0 13 13" fill="none" xmlns="http://www.w3.org/2000/svg">
<path d="M4.29429 1.73959H4.17822C4.24206 1.73959 4.29429 1.68736 4.29429 1.62352V1.73959H8.70501V1.62352C8.70501 1.68736 8.75724 1.73959 8.82108 1.73959H8.70501V2.78423H9.74965V1.62352C9.74965 1.11135 9.33325 0.694946 8.82108 0.694946H4.17822C3.66606 0.694946 3.24965 1.11135 3.24965 1.62352V2.78423H4.29429V1.73959ZM11.6068 2.78423H1.39251C1.1357 2.78423 0.928223 2.99171 0.928223 3.24852V3.7128C0.928223 3.77664 0.980455 3.82888 1.04429 3.82888H1.92063L2.279 11.417C2.30222 11.9118 2.71137 12.3021 3.20613 12.3021H9.79318C10.2894 12.3021 10.6971 11.9133 10.7203 11.417L11.0787 3.82888H11.955C12.0189 3.82888 12.0711 3.77664 12.0711 3.7128V3.24852C12.0711 2.99171 11.8636 2.78423 11.6068 2.78423ZM9.68146 11.2574H3.31784L2.96673 3.82888H10.0326L9.68146 11.2574Z" fill="black"/>
</svg>
