<svg width="12" height="14" viewBox="0 0 12 14" fill="none" xmlns="http://www.w3.org/2000/svg">
<path d="M11.4136 10.9292C11.1189 10.231 10.6911 9.59684 10.1542 9.06199C9.61898 8.5256 8.98491 8.09793 8.28705 7.80261C8.2808 7.79949 8.27455 7.79793 8.2683 7.7948C9.24174 7.09168 9.87455 5.94636 9.87455 4.65418C9.87455 2.51355 8.14017 0.779175 5.99955 0.779175C3.85893 0.779175 2.12455 2.51355 2.12455 4.65418C2.12455 5.94636 2.75736 7.09168 3.7308 7.79636C3.72455 7.79949 3.7183 7.80105 3.71205 7.80418C3.01205 8.09949 2.38393 8.52293 1.84486 9.06355C1.30847 9.59881 0.880808 10.2329 0.585488 10.9307C0.295367 11.6139 0.138898 12.3464 0.124551 13.0886C0.124134 13.1052 0.127059 13.1218 0.133154 13.1373C0.139249 13.1529 0.14839 13.167 0.160039 13.179C0.171688 13.1909 0.185609 13.2004 0.200982 13.2069C0.216355 13.2133 0.232869 13.2167 0.249551 13.2167H1.18705C1.2558 13.2167 1.31049 13.162 1.31205 13.0948C1.3433 11.8886 1.82768 10.7589 2.68393 9.90261C3.56986 9.01668 4.74643 8.52918 5.99955 8.52918C7.25268 8.52918 8.42924 9.01668 9.31518 9.90261C10.1714 10.7589 10.6558 11.8886 10.687 13.0948C10.6886 13.1636 10.7433 13.2167 10.812 13.2167H11.7495C11.7662 13.2167 11.7827 13.2133 11.7981 13.2069C11.8135 13.2004 11.8274 13.1909 11.8391 13.179C11.8507 13.167 11.8599 13.1529 11.8659 13.1373C11.872 13.1218 11.875 13.1052 11.8745 13.0886C11.8589 12.3417 11.7042 11.6151 11.4136 10.9292ZM5.99955 7.34168C5.28236 7.34168 4.60736 7.06199 4.09955 6.55418C3.59174 6.04636 3.31205 5.37136 3.31205 4.65418C3.31205 3.93699 3.59174 3.26199 4.09955 2.75418C4.60736 2.24636 5.28236 1.96668 5.99955 1.96668C6.71674 1.96668 7.39174 2.24636 7.89955 2.75418C8.40736 3.26199 8.68705 3.93699 8.68705 4.65418C8.68705 5.37136 8.40736 6.04636 7.89955 6.55418C7.39174 7.06199 6.71674 7.34168 5.99955 7.34168Z" fill="black"/>
</svg>
